<svg xmlns="http://www.w3.org/2000/svg" width="960" height="620" viewBox="0 0 960 620" role="img" aria-labelledby="title desc">
  <title id="title">MetaTrace interface preview</title>
  <desc id="desc">A soft dashboard-style digital forensics case management interface.</desc>
  <defs>
    <linearGradient id="bg" x1="0" x2="1" y1="0" y2="1">
      <stop offset="0" stop-color="#fff8fa"/>
      <stop offset="1" stop-color="#f5e8ed"/>
    </linearGradient>
    <filter id="shadow" x="-20%" y="-20%" width="140%" height="140%">
      <feDropShadow dx="0" dy="18" stdDeviation="18" flood-color="#53343f" flood-opacity=".12"/>
    </filter>
  </defs>
  <rect width="960" height="620" rx="42" fill="url(#bg)"/>
  <circle cx="760" cy="96" r="160" fill="#c48da0" opacity=".16"/>
  <rect x="72" y="74" width="816" height="472" rx="30" fill="#ffffff" opacity=".82" filter="url(#shadow)"/>
  <rect x="72" y="74" width="816" height="68" rx="30" fill="#704253" opacity=".9"/>
  <circle cx="120" cy="108" r="10" fill="#f5e8ed"/>
  <circle cx="152" cy="108" r="10" fill="#c48da0"/>
  <circle cx="184" cy="108" r="10" fill="#9b5f73"/>
  <rect x="118" y="188" width="250" height="284" rx="24" fill="#f7eef2"/>
  <rect x="412" y="188" width="356" height="82" rx="22" fill="#f5e8ed"/>
  <rect x="412" y="302" width="356" height="82" rx="22" fill="#fff8fa" stroke="#eadde2" stroke-width="3"/>
  <rect x="412" y="416" width="356" height="56" rx="18" fill="#f5e8ed"/>
  <rect x="152" y="224" width="154" height="16" rx="8" fill="#704253" opacity=".5"/>
  <rect x="152" y="268" width="172" height="14" rx="7" fill="#704253" opacity=".28"/>
  <rect x="152" y="304" width="128" height="14" rx="7" fill="#704253" opacity=".28"/>
  <rect x="452" y="222" width="218" height="14" rx="7" fill="#704253" opacity=".35"/>
  <rect x="452" y="336" width="254" height="14" rx="7" fill="#704253" opacity=".28"/>
  <rect x="452" y="438" width="190" height="14" rx="7" fill="#704253" opacity=".3"/>
</svg>
