<svg xmlns="http://www.w3.org/2000/svg" width="960" height="620" viewBox="0 0 960 620" role="img" aria-labelledby="title desc">
  <title id="title">Portfolio website preview</title>
  <desc id="desc">A soft modern portfolio webpage preview with cards and action buttons.</desc>
  <defs>
    <linearGradient id="bg" x1="0" x2="1" y1="0" y2="1">
      <stop offset="0" stop-color="#fff8fa"/>
      <stop offset="1" stop-color="#f7f7f4"/>
    </linearGradient>
    <filter id="shadow" x="-20%" y="-20%" width="140%" height="140%">
      <feDropShadow dx="0" dy="18" stdDeviation="18" flood-color="#53343f" flood-opacity=".12"/>
    </filter>
  </defs>
  <rect width="960" height="620" rx="42" fill="url(#bg)"/>
  <circle cx="796" cy="116" r="166" fill="#c48da0" opacity=".16"/>
  <rect x="88" y="78" width="784" height="464" rx="32" fill="#ffffff" opacity=".84" filter="url(#shadow)"/>
  <rect x="132" y="128" width="96" height="24" rx="12" fill="#9b5f73"/>
  <rect x="628" y="130" width="74" height="16" rx="8" fill="#704253" opacity=".28"/>
  <rect x="724" y="130" width="74" height="16" rx="8" fill="#704253" opacity=".28"/>
  <rect x="132" y="214" width="394" height="36" rx="18" fill="#704253" opacity=".42"/>
  <rect x="132" y="278" width="512" height="18" rx="9" fill="#704253" opacity=".24"/>
  <rect x="132" y="318" width="432" height="18" rx="9" fill="#704253" opacity=".18"/>
  <rect x="132" y="388" width="154" height="46" rx="23" fill="#9b5f73"/>
  <rect x="306" y="388" width="154" height="46" rx="23" fill="#ffffff" stroke="#eadde2" stroke-width="4"/>
  <rect x="604" y="220" width="182" height="214" rx="28" fill="#f5e8ed"/>
  <rect x="638" y="258" width="114" height="18" rx="9" fill="#704253" opacity=".28"/>
  <rect x="638" y="304" width="86" height="14" rx="7" fill="#704253" opacity=".2"/>
  <rect x="638" y="340" width="106" height="14" rx="7" fill="#704253" opacity=".2"/>
</svg>
