<svg xmlns="http://www.w3.org/2000/svg" width="960" height="620" viewBox="0 0 960 620" role="img" aria-labelledby="title desc">
  <title id="title">Story Prompt Generator preview</title>
  <desc id="desc">A soft command-line preview for a Python story prompt generator.</desc>
  <defs>
    <linearGradient id="bg" x1="0" x2="1" y1="0" y2="1">
      <stop offset="0" stop-color="#fbf7f8"/>
      <stop offset="1" stop-color="#f2e3e9"/>
    </linearGradient>
    <filter id="shadow" x="-20%" y="-20%" width="140%" height="140%">
      <feDropShadow dx="0" dy="18" stdDeviation="18" flood-color="#53343f" flood-opacity=".12"/>
    </filter>
  </defs>
  <rect width="960" height="620" rx="42" fill="url(#bg)"/>
  <circle cx="800" cy="130" r="170" fill="#704253" opacity=".13"/>
  <rect x="90" y="88" width="780" height="444" rx="30" fill="#ffffff" opacity=".84" filter="url(#shadow)"/>
  <rect x="90" y="88" width="780" height="66" rx="30" fill="#704253" opacity=".9"/>
  <circle cx="136" cy="122" r="10" fill="#f5e8ed"/>
  <circle cx="168" cy="122" r="10" fill="#c48da0"/>
  <circle cx="200" cy="122" r="10" fill="#9b5f73"/>
  <rect x="138" y="214" width="564" height="18" rx="9" fill="#704253" opacity=".34"/>
  <rect x="138" y="266" width="418" height="18" rx="9" fill="#704253" opacity=".24"/>
  <rect x="138" y="318" width="292" height="18" rx="9" fill="#704253" opacity=".24"/>
  <rect x="138" y="386" width="684" height="72" rx="22" fill="#f7eef2" stroke="#eadde2" stroke-width="3"/>
  <rect x="176" y="414" width="472" height="16" rx="8" fill="#704253" opacity=".36"/>
  <path d="M138 220h-18l10-10m-10 10 10 10" fill="none" stroke="#9b5f73" stroke-width="8" stroke-linecap="round" stroke-linejoin="round"/>
</svg>
